<?xml version="1.0" encoding="UTF-8" standalone="no"?>
<svg width="15px" height="15px" viewBox="0 0 15 15" version="1.1" xmlns="http://www.w3.org/2000/svg" xmlns:xlink="http://www.w3.org/1999/xlink">
    <!-- Generator: Sketch 47 (45396) - http://www.bohemiancoding.com/sketch -->
    <title>x</title>
    <desc>Created with Sketch.</desc>
    <defs></defs>
    <g id="Guest-Services-(Desktop)" stroke="none" stroke-width="1" fill="none" fill-rule="evenodd">
        <g id="Maintenance-Banner" transform="translate(-1265.000000, -137.000000)" fill="#FFFFFF">
            <g id="Maintenance" transform="translate(0.000000, 117.000000)">
                <path d="M1273.95747,27.3158818 L1279.84536,21.5931864 C1279.93814,21.503006 1280,21.3677355 1280,21.247495 C1280,21.1272545 1279.93814,20.991984 1279.84536,20.9018036 L1279.07216,20.1503006 C1278.97938,20.0601202 1278.84021,20 1278.71649,20 C1278.59278,20 1278.45361,20.0601202 1278.36082,20.1503006 L1272.5,25.8466934 L1266.63918,20.1503006 C1266.54639,20.0601202 1266.40722,20 1266.28351,20 C1266.15979,20 1266.02062,20.0601202 1265.92784,20.1503006 L1265.15464,20.9018036 C1265.06186,20.991984 1265,21.1272545 1265,21.247495 C1265,21.3677355 1265.06186,21.503006 1265.15464,21.5931864 L1271.04253,27.3158818 C1271.01546,27.376002 1271,27.4398798 1271,27.5 C1271,27.5601202 1271.01546,27.623998 1271.04253,27.6841182 L1265.15464,33.4068136 C1265.06186,33.496994 1265,33.6322645 1265,33.752505 C1265,33.8877756 1265.06186,34.008016 1265.15464,34.0981964 L1265.92784,34.8496994 C1266.02062,34.9398798 1266.15979,35 1266.28351,35 C1266.40722,35 1266.54639,34.9398798 1266.63918,34.8496994 L1272.5,29.1533066 L1278.36082,34.8496994 C1278.45361,34.9398798 1278.59278,35 1278.71649,35 C1278.84021,35 1278.97938,34.9398798 1279.07216,34.8496994 L1279.84536,34.0981964 C1279.93814,34.008016 1280,33.8877756 1280,33.752505 C1280,33.6322645 1279.93814,33.496994 1279.84536,33.4068136 L1273.95747,27.6841182 C1273.98454,27.623998 1274,27.5601202 1274,27.5 C1274,27.4398798 1273.98454,27.376002 1273.95747,27.3158818 Z" id="x"></path>
            </g>
        </g>
    </g>
</svg>