<?xml version="1.0" encoding="UTF-8" standalone="no"?>
<svg width="12px" height="20px" viewBox="0 0 12 20" version="1.1" xmlns="http://www.w3.org/2000/svg" xmlns:xlink="http://www.w3.org/1999/xlink">
    <!-- Generator: Sketch 47 (45396) - http://www.bohemiancoding.com/sketch -->
    <title>&gt;</title>
    <desc>Created with Sketch.</desc>
    <defs></defs>
    <g id="Symbols" stroke="none" stroke-width="1" fill="none" fill-rule="evenodd">
        <g id="global-section-link" transform="translate(-938.000000, -26.000000)" fill="#666666">
            <g id="eu_gx_next-button" transform="translate(938.000000, 26.000000)">
                <path d="M16,5.71134021 C16,5.54639175 15.9198397,5.36082474 15.7995992,5.2371134 L14.7975952,4.20618557 C14.6773547,4.08247423 14.496994,4 14.3366733,4 C14.1763527,4 13.995992,4.08247423 13.8757515,4.20618557 L6,12.3092784 L-1.8757515,4.20618557 C-1.99599198,4.08247423 -2.17635271,4 -2.33667335,4 C-2.51703407,4 -2.67735471,4.08247423 -2.79759519,4.20618557 L-3.7995992,5.2371134 C-3.91983968,5.36082474 -4,5.54639175 -4,5.71134021 C-4,5.87628866 -3.91983968,6.06185567 -3.7995992,6.18556701 L5.53907816,15.7938144 C5.65931864,15.9175258 5.83967936,16 6,16 C6.16032064,16 6.34068136,15.9175258 6.46092184,15.7938144 L15.7995992,6.18556701 C15.9198397,6.06185567 16,5.87628866 16,5.71134021 Z" id="&gt;" transform="translate(6.000000, 10.000000) rotate(-90.000000) translate(-6.000000, -10.000000) "></path>
            </g>
        </g>
    </g>
</svg>