<?xml version="1.0" encoding="UTF-8" standalone="no"?>
<svg width="6px" height="10px" viewBox="0 0 6 10" version="1.1" xmlns="http://www.w3.org/2000/svg" xmlns:xlink="http://www.w3.org/1999/xlink">
    <!-- Generator: Sketch 47 (45396) - http://www.bohemiancoding.com/sketch -->
    <title>Back Icon Mobile</title>
    <desc>Created with Sketch.</desc>
    <defs></defs>
    <g id="Guest-Services-(Mobile)" stroke="none" stroke-width="1" fill="none" fill-rule="evenodd">
        <g id="Section" transform="translate(-20.000000, -142.000000)" fill="#FFFFFF">
            <g id="Breadcrumbs" transform="translate(0.000000, 65.000000)">
                <g id="Back-Icon-Mobile" transform="translate(20.000000, 77.000000)">
                    <path d="M8,2.8556701 C8,2.77319588 7.95991984,2.68041237 7.8997996,2.6185567 L7.3987976,2.10309278 C7.33867735,2.04123711 7.24849699,2 7.16833667,2 C7.08817635,2 6.99799599,2.04123711 6.93787575,2.10309278 L3,6.15463918 L-0.937875752,2.10309278 C-0.997995992,2.04123711 -1.08817635,2 -1.16833667,2 C-1.25851703,2 -1.33867735,2.04123711 -1.3987976,2.10309278 L-1.8997996,2.6185567 C-1.95991984,2.68041237 -2,2.77319588 -2,2.8556701 C-2,2.93814433 -1.95991984,3.03092784 -1.8997996,3.09278351 L2.76953908,7.89690722 C2.82965932,7.95876289 2.91983968,8 3,8 C3.08016032,8 3.17034068,7.95876289 3.23046092,7.89690722 L7.8997996,3.09278351 C7.95991984,3.03092784 8,2.93814433 8,2.8556701 Z" id="Back" transform="translate(3.000000, 5.000000) scale(-1, 1) rotate(-90.000000) translate(-3.000000, -5.000000) "></path>
                </g>
            </g>
        </g>
    </g>
</svg>