<?xml version="1.0" encoding="UTF-8"?>
<svg width="9px" height="15px" viewBox="0 0 9 15" version="1.1" xmlns="http://www.w3.org/2000/svg" xmlns:xlink="http://www.w3.org/1999/xlink">
    <title>back-mobile-blue</title>
    <g id="Page-1" stroke="none" stroke-width="1" fill="none" fill-rule="evenodd">
        <g id="back-mobile-blue" fill="#1994D7" fill-rule="nonzero">
            <path d="M12,4.28350515 C12,4.15979382 11.9398798,4.02061856 11.8496994,3.92783505 L11.0981964,3.15463917 C11.008016,3.06185566 10.8727455,3 10.752505,3 C10.6322645,3 10.496994,3.06185566 10.4068136,3.15463917 L4.5,9.23195877 L-1.40681363,3.15463917 C-1.49699399,3.06185566 -1.63226452,3 -1.752505,3 C-1.88777554,3 -2.00801602,3.06185566 -2.0981964,3.15463917 L-2.8496994,3.92783505 C-2.93987976,4.02061856 -3,4.15979382 -3,4.28350515 C-3,4.4072165 -2.93987976,4.54639176 -2.8496994,4.63917526 L4.15430862,11.8453608 C4.24448898,11.9381443 4.37975952,12 4.5,12 C4.62024048,12 4.75551102,11.9381443 4.84569138,11.8453608 L11.8496994,4.63917526 C11.9398798,4.54639176 12,4.4072165 12,4.28350515 Z" id="Back" transform="translate(4.500000, 7.500000) scale(-1, 1) rotate(-90.000000) translate(-4.500000, -7.500000) "></path>
        </g>
    </g>
</svg>