<?xml version="1.0" encoding="UTF-8" standalone="no"?>
<svg width="56px" height="45px" viewBox="0 0 56 45" version="1.1" xmlns="http://www.w3.org/2000/svg" xmlns:xlink="http://www.w3.org/1999/xlink">
    <!-- Generator: Sketch 43.1 (39012) - http://www.bohemiancoding.com/sketch -->
    <title>Fill 1 + Fill 2 + Fill 3</title>
    <desc>Created with Sketch.</desc>
    <defs></defs>
    <g id="Page-3" stroke="none" stroke-width="1" fill="none" fill-rule="evenodd">
        <g id="Landing-Page-Copy-5" transform="translate(-772.000000, -2003.000000)" fill="#067CC1">
            <g id="Group-17-Copy-19" transform="translate(590.000000, 1977.000000)">
                <g id="Group-15" transform="translate(150.000000, 0.000000)">
                    <g id="Group-12" transform="translate(14.000000, 0.000000)">
                        <g id="Live-Chat" transform="translate(18.000000, 26.000000)">
                            <g id="Fill-1-+-Fill-2-+-Fill-3">
                                <path d="M47.688092,5.188644 L34.89494,5.188644 C34.414056,2.330572 31.917084,0.139316 28.89654,0.139316 L6.933748,0.139316 C3.569492,0.139316 0.830376,2.852764 0.830376,6.182336 L0.830376,21.763272 C0.830376,25.096892 3.569492,27.806292 6.933748,27.806292 L7.137712,27.806292 L7.137712,35.110632 C7.137712,35.50982 7.375624,35.857948 7.73976,36.01076 C7.859636,36.057496 7.983928,36.087304 8.109232,36.087304 C8.365084,36.087304 8.611276,35.989692 8.797116,35.798516 L16.793572,27.806292 L17.571708,27.806292 L17.571708,28.672564 C17.571708,32.764356 20.93624,36.104232 25.071272,36.104232 L37.037528,36.104232 L44.917144,43.981916 C45.341816,44.406588 45.908628,44.63162 46.477832,44.63162 C46.76662,44.63162 47.04906,44.57642 47.32276,44.461788 C48.150944,44.12194 48.686108,43.319424 48.686108,42.423436 L48.686108,36.036428 C52.348904,35.552232 55.187656,32.43104 55.187656,28.672564 L55.187656,12.620128 C55.187656,8.522264 51.822296,5.188644 47.688092,5.188644 L47.688092,5.188644 Z M50.771196,28.672564 C50.771196,30.328932 49.386596,31.687864 47.688092,31.687864 L46.477832,31.687864 C45.258924,31.687864 44.277928,32.673 44.277928,33.891724 L44.277928,37.093784 L39.513156,32.337476 C39.09704,31.917036 38.532344,31.687864 37.950536,31.687864 L25.071272,31.687864 C23.372768,31.687864 21.988352,30.328932 21.988352,28.672564 L21.988352,12.620128 C21.988352,10.95548 23.372768,9.605104 25.071272,9.605104 L47.688092,9.605104 C49.386596,9.605104 50.771196,10.95548 50.771196,12.620128 L50.771196,28.672564 L50.771196,28.672564 Z" id="Fill-1"></path>
                                <path d="M44.346008,18.854324 L28.471868,18.854324 C27.852892,18.854324 27.356,18.361848 27.356,17.741676 C27.356,17.12592 27.852892,16.624796 28.471868,16.624796 L44.346008,16.624796 C44.965812,16.624796 45.458564,17.12592 45.458564,17.741676 C45.458564,18.361848 44.965812,18.854324 44.346008,18.854324" id="Fill-2"></path>
                                <path d="M37.118212,24.837912 L28.566444,24.837912 C27.950688,24.837912 27.453704,24.336788 27.453704,23.725356 C27.453704,23.105276 27.950688,22.608384 28.566444,22.608384 L37.118212,22.608384 C37.736084,22.608384 38.234908,23.105276 38.234908,23.725356 C38.234908,24.336788 37.736084,24.837912 37.118212,24.837912" id="Fill-3"></path>
                            </g>
                        </g>
                    </g>
                </g>
            </g>
        </g>
    </g>
</svg>