<?xml version="1.0" encoding="UTF-8" standalone="no"?>
<svg width="70px" height="64px" viewBox="0 0 70 64" version="1.1" xmlns="http://www.w3.org/2000/svg" xmlns:xlink="http://www.w3.org/1999/xlink">
    <!-- Generator: Sketch 47.1 (45422) - http://www.bohemiancoding.com/sketch -->
    <title>Icon - Alert</title>
    <desc>Created with Sketch.</desc>
    <defs></defs>
    <g id="Guest-Services-(Desktop)" stroke="none" stroke-width="1" fill="none" fill-rule="evenodd">
        <g id="Search---No-Results" transform="translate(-320.000000, -790.000000)" fill="#222222">
            <g id="Group" transform="translate(320.000000, 787.000000)">
                <g id="eu_gx-alert-icon-dark">
                    <path d="M29.2507402,52.4124776 C29.2507402,49.1799403 31.8718746,46.5558806 35.1044119,46.5558806 C38.3369492,46.5558806 40.9610089,49.1799403 40.9610089,52.4124776 C40.9610089,55.6508657 38.3369492,58.2690746 35.1044119,58.2690746 C31.8718746,58.2690746 29.2507402,55.6508657 29.2507402,52.4124776 Z M29.2946208,23.4717612 C29.2946208,20.2567761 31.8952775,17.6619701 35.1044119,17.6619701 C38.3135462,17.6619701 40.9142029,20.2567761 40.9142029,23.4717612 L40.9142029,36.9752836 C40.9142029,40.1785672 38.3135462,42.7792239 35.1044119,42.7792239 C31.8952775,42.7792239 29.2946208,40.1785672 29.2946208,36.9752836 L29.2946208,23.4717612 Z M40.558333,6.24842106 C39.4296044,4.23998868 37.3033947,3 34.9992716,3 C32.6951486,3 30.5660222,4.23998868 29.4402102,6.24842106 L0.810752427,57.2713357 C-0.291726694,59.2448388 -0.268393802,61.6491361 0.872001267,63.5993531 C2.01822956,65.5437485 4.10943996,66.7313433 6.36981381,66.7313433 L63.6287294,66.7313433 C65.8920199,66.7313433 67.9803137,65.5437485 69.1236254,63.5993531 C70.2698537,61.6491361 70.2931865,59.2448388 69.1848742,57.2713357 L40.558333,6.24842106 Z" id="Page-1"></path>
                </g>
            </g>
        </g>
    </g>
</svg>