<svg xmlns="http://www.w3.org/2000/svg" width="91" height="38.7" viewBox="0 0 91 38.7"><title>disney-logo</title><path d="M2.76,4.17c-.23,0-.53.08-1,.08A6.16,6.16,0,0,1,.59,4.13C.19,4,0,3.9,0,3.6,0,.15,6.1,0,8.71,0a26,26,0,0,1,5.68.68,56.78,56.78,0,0,1,5.87,1.7A37.77,37.77,0,0,1,31,8.63c3.6,2.84,6.4,6.58,6.4,10.42a8.45,8.45,0,0,1-1.28,4.62,9.4,9.4,0,0,1-3.29,3.15,14.25,14.25,0,0,1-4.58,1.9,21.83,21.83,0,0,1-5.19.6,32.89,32.89,0,0,1-5.48-.57c-.15.42-.26.76-.49,1.59a3.75,3.75,0,0,1-1.33.19l-.87-.08a7.9,7.9,0,0,1-1-3,26.31,26.31,0,0,1-6.7-4.92,14,14,0,0,1-1.28-1.56,3,3,0,0,1-.65-1.74,2.29,2.29,0,0,1,1.28-1.64,13.07,13.07,0,0,1,3.18-1.63,40.13,40.13,0,0,1,4.62-1.1l.08-1.56c0-.15.15-1.33.34-2.5a5.8,5.8,0,0,1,1-2.69c1.4,1.1,1.59,2.35,1.67,4a16.9,16.9,0,0,0,.23,2.42h.49c2.58,0,10.76.65,10.76,4.51a3.17,3.17,0,0,1-2.58,2.61,3.52,3.52,0,0,1-1.74-.45c.34-.31.65-.65,1-.94a1.67,1.67,0,0,0,.68-.83c-.76-.83-4.89-1.9-7.81-1.9a2.42,2.42,0,0,0-1,.15v8.18a4.9,4.9,0,0,0,1.93.76,15.35,15.35,0,0,0,1.67.11,22.75,22.75,0,0,0,8-1.25c2.69-1,4.89-2.88,4.89-6.28,0-6.67-8.56-11.78-14.92-14.25a40.77,40.77,0,0,0-6.7-2,35.37,35.37,0,0,0-7.08-.6,14.25,14.25,0,0,0-3.07.31c-.6.11-.91.31-.91.49s1.33.38,1.48.49a.29.29,0,0,1,.19.31.29.29,0,0,1-.11.26ZM79.12,38.7a2.55,2.55,0,0,1-1.78-1,3.09,3.09,0,0,1-.8-2.08,37.28,37.28,0,0,1,2.76-9.87A6.83,6.83,0,0,1,78.58,23a8.51,8.51,0,0,1,.65-3,14.08,14.08,0,0,1,1.36-2.73,17.42,17.42,0,0,1,1.56-2.08c.49-.49.83-.8,1-.8.6.08.68.38.68,1a2.32,2.32,0,0,1-.42,1.1c-.26.38-.65,1.1-1.25,1.93a7.07,7.07,0,0,0-.91,1.78,4.77,4.77,0,0,0-.57,2c0,.19,0,.38.15.49h.08a.26.26,0,0,0,.12-.14c.45-.65,1-1.28,1.67-2.08s1.33-1.59,2-2.27a20.14,20.14,0,0,1,2.12-1.86,2.85,2.85,0,0,1,1.7-.8c2,0,2.5,3.29,2.5,4.74a5.11,5.11,0,0,1-1,3.07,7.67,7.67,0,0,1-2.12,2.42,9.87,9.87,0,0,1-2.73,1.63,5.81,5.81,0,0,1-2.35.57,7.53,7.53,0,0,0-.83.08,81.92,81.92,0,0,0-2.76,10.32ZM46.28,4.17h.15c.57,0,2.12.68,2.12,2a4.24,4.24,0,0,1-.8,2.27,8.58,8.58,0,0,1-2.05,2,11.34,11.34,0,0,1-2.47,1.44,5.68,5.68,0,0,1-2.19.6,8.52,8.52,0,0,1-2.42-.34c-.38.49-.53.87-1.1,1-.45-.11-.83-.83-1-1.7a2,2,0,0,1,.15-.6,3.42,3.42,0,0,1-1-2.19c0-2.5,3.71-5.87,7.39-5.94,1.63,0,3,.56,3.18,1.44ZM45,18a.08.08,0,0,0-.08.08c0,.08,0,.11.08.11.72.26,1.4.45,1.93.65.53,0,1.22.08,2,.15s1.4.08,2.12.15a6.22,6.22,0,0,1,2.08.49,3.9,3.9,0,0,1,1.52,1.1,2.94,2.94,0,0,1,.68,2.08,4.06,4.06,0,0,1-.72,2.47,5.48,5.48,0,0,1-1.7,1.25,5.93,5.93,0,0,1-1.9.53,13.28,13.28,0,0,1-1.4.11c-3.29,0-6.14-2.12-6.14-3.67,0-1.82,2-2.31,3.49-2.31a10.59,10.59,0,0,1,4.89,1.1c.08,0,.08.15.08.19s0,.15-.08.19a2,2,0,0,1-.8.53,2.86,2.86,0,0,1-1.33.23c-1.1,0-2.65-.91-4.12-.91a2.19,2.19,0,0,0-.76.15.81.81,0,0,0-.42.8c0,1,1.7,1,3.07,1q.23,0,1.25-.11c.68-.11,1.33-.23,2-.38a11.35,11.35,0,0,0,1.84-.59c.57-.26.87-.57.87-.91,0-1.36-4-1.93-5.65-2C43.46,20.49,43,20,43,18.38c0-3.56,7.19-3.83,7.58-3.83a22.57,22.57,0,0,1,4.74.6c.31.08.45.19.45.6a1.34,1.34,0,0,1-.87.87,4.07,4.07,0,0,1-1.22.19c-1.33.23-5.26.42-6.44.6A5.16,5.16,0,0,0,45,18Zm18-4.58c0-.34.08-.8.38-.8.57,0,1.63.91,2.53,2.5a13.87,13.87,0,0,1,1.59,6.51c0,2.31-1,5.15-2.92,5.15-2.19,0-4.51-7.16-5-7.16-.08,0-.19.19-.31.42-.08.49-.11,4.54-.38,5.68,0,.49-.31,1.78-1.1,1.78-1.25,0-1.48-2.12-1.48-2.95-.08-2.08,1-9,2.58-9,.31,0,.68.19,1.1.8a18.13,18.13,0,0,1,1.38,1.85c.45.72.91,1.56,1.48,2.39a17.2,17.2,0,0,0,1.56,2.19c.19.23.26.31.23.31.23,0,.26-.23.26-.65v-.34c0-3.41-.76-4.51-1.67-8.1l-.19-.42ZM77.22,25a.67.67,0,0,1-.23.57c-1,.83-3.38,2.61-5.87,2.61a2.69,2.69,0,0,1-2.31-1A3.38,3.38,0,0,1,68.09,25,14.41,14.41,0,0,1,69,21.71c-.11-.38-.31-.53-.31-1a1.57,1.57,0,0,1,.19-.72,3.39,3.39,0,0,1,1-.34l.87-2c-.87-.42-2.12-.87-2.12-1.74,0-.38.34-.53,1-.57a49.91,49.91,0,0,1,6.58-.76,4.17,4.17,0,0,1,1.56.26,10.13,10.13,0,0,0,.72.8,1.71,1.71,0,0,1,.45,1.1c0,.34-1.28.87-2,.87s-1.36.08-1.74.08h-1.3a1.74,1.74,0,0,0-.53,0,2.27,2.27,0,0,0-.53,1.56.38.38,0,0,0,.35.42H76l.57.08a2.19,2.19,0,0,1,.23,1.1c0,.31-.08.83-.45.87-.72,0-2.39.08-4.39.08q-.11,0-.23.23a10.23,10.23,0,0,1-.91,2.53c.23,0,1.67-.38,4.09-.6.42,0,.87-.08,1.33-.08a.9.9,0,0,1,.6.38,1.1,1.1,0,0,1,.31.76ZM13.75,17.65c-3.29.31-7.53.65-7.58,2,0,.94,1.78,2.19,2.84,3.07A12.81,12.81,0,0,0,13.78,25l.34-7.39Zm25.86-3c.72,0,1.18.23,1.28.57a3.44,3.44,0,0,1,.38,1.7c0,3.07.38,6.33.38,9.35a2,2,0,0,1-.23.91,1.1,1.1,0,0,1-1,.42,5.92,5.92,0,0,1-1.1-.23c-.45-.11-.72-1.67-.72-2v-1.1c0-1,0-1.33.11-2.88,0-.53.11-2.58.6-6.4,0-.23.11-.31.23-.31ZM39.77,10c0,.11.23.31.31.31h.83c2,0,5.79-1.33,5.79-3.67a2.37,2.37,0,0,0-.08-.6c-.08-.23-.38-.31-.87-.31C43.56,5.72,41.37,7.84,39.77,10ZM83.88,24.8A7.06,7.06,0,0,0,87.59,23a4.6,4.6,0,0,0,1.63-3.78,2.11,2.11,0,0,0-.08-.65.38.38,0,0,0-.35-.42h0c-.68,0-2,1.74-2.65,2.47-.42.6-1.9,3.52-2.19,4.17ZM37.5,8.64h.15a.29.29,0,0,0,.19,0,30.94,30.94,0,0,1,3-3.06v-.1a.77.77,0,0,0,0-.19,4.14,4.14,0,0,0-2.39,1.28,3.41,3.41,0,0,0-.94,2Z"/></svg>