<?xml version="1.0" encoding="UTF-8" standalone="no"?>
<svg width="48px" height="70px" viewBox="0 0 48 70" version="1.1" xmlns="http://www.w3.org/2000/svg" xmlns:xlink="http://www.w3.org/1999/xlink">
    <!-- Generator: Sketch 47.1 (45422) - http://www.bohemiancoding.com/sketch -->
    <title>Icon</title>
    <desc>Created with Sketch.</desc>
    <defs></defs>
    <g id="Page-1" stroke="none" stroke-width="1" fill="none" fill-rule="evenodd">
        <path d="M37.0289702,60.2565768 C39.718155,60.2565768 41.9006818,62.4391036 41.9006818,65.1282884 C41.9006818,67.8174732 39.718155,70 37.0289702,70 L10.8386487,70 C8.14621605,70 5.96693706,67.8174732 5.96693706,65.1282884 C5.96693706,62.4391036 8.14621605,60.2565768 10.8386487,60.2565768 L37.0289702,60.2565768 Z M46.8438451,33.1666125 C48.4937315,35.2971744 48.1072424,38.3533615 45.9799283,40.0032478 L26.9185447,54.7742774 C26.0416366,55.456317 24.9860991,55.794089 23.9338094,55.794089 C22.8815197,55.794089 21.82923,55.456317 20.9490741,54.7742774 L1.88769055,40.0032478 C-0.239623513,38.3566093 -0.626112632,35.2971744 1.02052589,33.1666125 C2.67041221,31.0425463 5.72984709,30.6560572 7.85716116,32.3026957 L19.0620978,40.9840857 L19.0620978,4.87171159 C19.0620978,2.18252679 21.2446246,0 23.9338094,0 C26.626242,0 28.805521,2.18252679 28.805521,4.87171159 L28.805521,40.9840857 L40.0104577,32.3026957 C42.1377717,30.6560572 45.2004544,31.0392985 46.8438451,33.1666125 Z" id="Icon" fill="#0088F1"></path>
    </g>
</svg>