<?xml version="1.0" encoding="UTF-8" standalone="no"?>
<svg width="52px" height="34px" viewBox="0 0 52 34" version="1.1" xmlns="http://www.w3.org/2000/svg" xmlns:xlink="http://www.w3.org/1999/xlink">
    <!-- Generator: Sketch 43.1 (39012) - http://www.bohemiancoding.com/sketch -->
    <title>Icon</title>
    <desc>Created with Sketch.</desc>
    <defs></defs>
    <g id="Page-3" stroke="none" stroke-width="1" fill="none" fill-rule="evenodd">
        <g id="Landing-Page-Copy-5" transform="translate(-924.000000, -2006.000000)" fill="#067CC1">
            <g id="Group-17-Copy-19" transform="translate(590.000000, 1977.000000)">
                <g id="Group-16" transform="translate(300.000000, 0.000000)">
                    <g id="Email" transform="translate(14.000000, 0.000000)">
                        <path d="M20.424,34.0405389 C20.424,31.4997314 22.4826152,29.44 25.0239323,29.44 L66.9760677,29.44 C69.5165401,29.44 71.576,31.4987491 71.576,34.0405389 L71.576,58.0514611 C71.576,60.5922686 69.5173848,62.652 66.9760677,62.652 L25.0239323,62.652 C22.4834599,62.652 20.424,60.5932509 20.424,58.0514611 L20.424,34.0405389 L20.424,34.0405389 Z M44.8646506,50.1482725 C45.5745656,50.5565499 46.4480246,50.5565498 47.1579396,50.1482724 L66.5812332,38.9777919 C67.6823741,38.3445176 68.0616549,36.9384963 67.4283806,35.8373554 C66.7951063,34.7362146 65.389085,34.3569338 64.2879441,34.9902081 L46.0130632,45.5022617 L27.7346445,34.990208 C26.6335036,34.3569338 25.2274823,34.7362146 24.594208,35.8373555 C23.9609338,36.9384964 24.3402146,38.3445177 25.4413555,38.977792 L44.8646506,50.1482725 L44.8646506,50.1482725 Z" id="Icon"></path>
                    </g>
                </g>
            </g>
        </g>
    </g>
</svg>