<svg xmlns="http://www.w3.org/2000/svg" viewBox="0 0 49.99 49.98"><defs><style>.cls-1{fill:#203b58;}.cls-2{fill:none;}</style></defs><title>Asset 15</title><g id="Layer_2" data-name="Layer 2"><g id="v2"><path class="cls-1" d="M42.56,22Zm0,0h0v0h0S42.52,22,42.54,22Z"/><rect class="cls-2" width="49.99" height="49.98"/><path class="cls-1" d="M45.57,27.69c-5.67.81-8.25,3.89-13.35,2.5a11,11,0,0,1-6.93-5.63c1.58-.86,2.78-3.78-.43-6.55a1.26,1.26,0,0,0-1.86,0c-2.18,2.07-2.89,5.3-.4,6.44a12.06,12.06,0,0,1-3.76,4.76,21.72,21.72,0,0,1-2.51,1.25,11.53,11.53,0,0,0-2.68,1.39,6,6,0,0,0-2-2.56c-2-1.28-7.22-.74-10-.16C-.67,29.65-.12,32.3.74,34.4A6.13,6.13,0,0,0,4.4,37.6c1.73.64,4.3.4,6.58.56a2.25,2.25,0,0,0-.54,1.54,2.1,2.1,0,0,0,2.2,2.08,2.2,2.2,0,0,0,1.92-1.45,13.77,13.77,0,0,0,5.68,3.38l-3,4.54A1.06,1.06,0,0,0,18,50l12.68,0a1.06,1.06,0,0,0,.79-1.7l-3-4.55a11.94,11.94,0,0,0,3.22-1.13h0c4.16-2.2,6.46-6.64,9.23-8.84s5.41-2.7,9.12-2.69A4,4,0,0,0,45.57,27.69ZM9.79,36.31c-1.66,0-3.55-.44-3.77-2A1.1,1.1,0,0,1,6.77,33,3.65,3.65,0,0,1,8,32.8a6.82,6.82,0,0,1,2.36.21c1.33.39,1.6,1.81,2.6,3.68A9.18,9.18,0,0,0,9.79,36.31Z"/><path class="cls-1" d="M48.63,19.85l-1.58-.65-.65-1.95a.26.26,0,0,0-.46,0l-.65,1.95-1.59.65a.25.25,0,0,0-.15.22.25.25,0,0,0,.15.23l1.59.64.65,1.95a.24.24,0,0,0,.23.17.26.26,0,0,0,.23-.17l.65-1.95,1.58-.64a.25.25,0,0,0,.15-.23A.25.25,0,0,0,48.63,19.85Z"/><path class="cls-1" d="M41.19,13.28a1.25,1.25,0,0,1,0-2.5,1.25,1.25,0,1,1,0,2.5"/><path class="cls-1" d="M35.9,12a.22.22,0,0,0-.14-.2L33.34,11l-.89-3.59a.22.22,0,0,0-.4,0L31.15,11l-2.41.8a.21.21,0,0,0-.15.2.19.19,0,0,0,.15.19l2.41.81.9,3.58a.2.2,0,0,0,.2.16.22.22,0,0,0,.2-.16L33.34,13l2.42-.81A.2.2,0,0,0,35.9,12"/><path class="cls-1" d="M20.49,7a.37.37,0,0,0-.25-.35l-2.93-1L16.22,1.28A.36.36,0,0,0,15.86,1a.35.35,0,0,0-.35.28l-1.1,4.37-2.92,1a.37.37,0,0,0,0,.7l2.92,1,1.1,4.37a.35.35,0,0,0,.35.28.36.36,0,0,0,.36-.28L17.31,8.3l2.93-1A.37.37,0,0,0,20.49,7"/></g></g></svg>