<?xml version="1.0" encoding="UTF-8" standalone="no"?>
<svg width="15px" height="15px" viewBox="0 0 15 15" version="1.1" xmlns="http://www.w3.org/2000/svg" xmlns:xlink="http://www.w3.org/1999/xlink">
    <!-- Generator: Sketch 47.1 (45422) - http://www.bohemiancoding.com/sketch -->
    <title>Close Button</title>
    <desc>Created with Sketch.</desc>
    <defs></defs>
    <g id="Modals" stroke="none" stroke-width="1" fill="none" fill-rule="evenodd">
        <g id="Compatible-Device-Checker" transform="translate(-560.000000, -25.000000)" fill="#666666">
            <g id="eu_gx_close-button" transform="translate(560.000000, 25.000000)">
                <path d="M8.95747423,7.31588176 L14.8453608,1.59318637 C14.9381443,1.50300601 15,1.36773547 15,1.24749499 C15,1.12725451 14.9381443,0.991983968 14.8453608,0.901803607 L14.0721649,0.150300601 C13.9793814,0.0601202405 13.8402062,1.77635684e-15 13.7164948,1.77635684e-15 C13.5927835,1.77635684e-15 13.4536082,0.0601202405 13.3608247,0.150300601 L7.5,5.84669339 L1.63917526,0.150300601 C1.54639175,0.0601202405 1.40721649,5.32907052e-15 1.28350515,5.32907052e-15 C1.15979381,5.32907052e-15 1.02061856,0.0601202405 0.927835052,0.150300601 L0.154639175,0.901803607 C0.0618556701,0.991983968 4.40217435e-15,1.12725451 4.39481174e-15,1.24749499 C4.38744913e-15,1.36773547 0.0618556701,1.50300601 0.154639175,1.59318637 L6.04252577,7.31588176 C6.01546392,7.376002 6,7.43987976 6,7.5 C6,7.56012024 6.01546392,7.623998 6.04252577,7.68411824 L0.154639175,13.4068136 C0.0618556701,13.496994 3.63646332e-15,13.6322645 3.62910072e-15,13.752505 C3.62081778e-15,13.8877756 0.0618556701,14.008016 0.154639175,14.0981964 L0.927835052,14.8496994 C1.02061856,14.9398798 1.15979381,15 1.28350515,15 C1.40721649,15 1.54639175,14.9398798 1.63917526,14.8496994 L7.5,9.15330661 L13.3608247,14.8496994 C13.4536082,14.9398798 13.5927835,15 13.7164948,15 C13.8402062,15 13.9793814,14.9398798 14.0721649,14.8496994 L14.8453608,14.0981964 C14.9381443,14.008016 15,13.8877756 15,13.752505 C15,13.6322645 14.9381443,13.496994 14.8453608,13.4068136 L8.95747423,7.68411824 C8.98453608,7.623998 9,7.56012024 9,7.5 C9,7.43987976 8.98453608,7.376002 8.95747423,7.31588176 Z" id="x"></path>
            </g>
        </g>
    </g>
</svg>