<?xml version="1.0" encoding="UTF-8" standalone="no"?>
<svg width="32px" height="48px" viewBox="0 0 32 48" version="1.1" xmlns="http://www.w3.org/2000/svg" xmlns:xlink="http://www.w3.org/1999/xlink">
    <!-- Generator: Sketch 43.1 (39012) - http://www.bohemiancoding.com/sketch -->
    <title>Icon</title>
    <desc>Created with Sketch.</desc>
    <defs></defs>
    <g id="Page-3" stroke="none" stroke-width="1" fill="none" fill-rule="evenodd">
        <g id="Landing-Page-Copy-5" transform="translate(-634.000000, -1999.000000)" fill="#067CC1">
            <g id="Group-17-Copy-19" transform="translate(590.000000, 1977.000000)">
                <g id="Group-14">
                    <g id="Call" transform="translate(14.000000, 0.000000)">
                        <path d="M36.5707665,23.6647739 C36.4594465,23.7425422 36.3418253,23.8161068 36.2221038,23.9001807 C33.0862404,26.0482675 31.4521469,29.060213 30.9984653,32.0238161 C30.8199333,32.6354533 30.7443197,33.5119231 30.918651,34.8781231 C30.9690601,35.3951773 31.0656774,35.9038241 31.1832986,36.3956561 C31.6075748,38.4029191 32.4561272,41.1983745 33.9662986,45.1498453 C34.8904646,47.5669684 35.8104299,49.4628336 36.5119559,50.8458484 L36.8753212,51.5520687 C36.879522,51.5604761 37.0769574,51.9640305 37.0769574,51.9640305 C37.8940042,53.5677391 38.916888,55.5119468 40.3787506,57.7567185 C42.4098155,60.8863675 44.0145038,63.0617782 45.3104367,64.5793111 C45.801925,65.2519019 46.3942314,65.8740484 47.0684525,66.4352413 C48.011522,67.2969982 48.7193491,67.7110619 49.2969529,67.9002281 C51.9266253,69.2201875 55.2494223,69.6489641 58.7570525,68.4193841 C58.8977778,68.3689398 59.0280012,68.3205973 59.160325,68.2680511 C59.1309197,68.2932733 59.1057152,68.3142918 59.0742095,68.3353102 C60.5801801,67.7446915 61.4455355,67.0721007 61.231297,65.5587715 C60.8658314,62.9608896 57.5976442,56.4640831 56.0706699,55.209281 C55.4909657,54.7342638 53.6363325,55.345901 53.6153287,55.3501047 C52.1492653,55.7809831 50.5046699,55.9449271 48.9986993,55.8608533 C48.0598306,55.8083071 47.3667061,55.4362804 46.8185076,54.5913382 C45.245325,52.1637059 44.7370336,51.1947548 43.4242978,48.5926693 L43.1239438,48.0104579 C41.811208,45.4083724 41.1495891,44.0694964 40.1267053,41.3686241 C39.7381355,40.3576361 40.0048835,39.5232031 40.6139929,38.7434182 C41.4583446,37.6651711 43.6574397,35.8050373 43.670042,35.7882225 C44.5017914,35.0735948 45.3314404,34.6574293 45.2915333,33.8797462 C45.184414,31.9082145 41.8700186,25.4303247 40.0006827,23.5933111 C38.900085,22.5234715 37.837294,22.8240355 36.4720487,23.6878942 C36.5077552,23.6815887 36.5350601,23.6731813 36.5707665,23.6647739 Z" id="Icon"></path>
                    </g>
                </g>
            </g>
        </g>
    </g>
</svg>