<!-- Generated by IcoMoon.io -->
<svg version="1.1" xmlns="http://www.w3.org/2000/svg" width="1024" height="1024" viewBox="0 0 1024 1024">
<title></title>
<g id="icomoon-ignore">
</g>
<path fill="#253b56" d="M460.881 946.585c-5.824-3.098-12.734-4.917-20.070-4.917-0.144 0-0.288 0.001-0.432 0.002h-336.26c-17.214-1.087-30.764-15.314-30.764-32.707 0-0.598 0.016-1.192 0.048-1.782l-0.004 0.082v-790.528c-0.043-0.63-0.068-1.366-0.068-2.108 0-17.401 13.563-31.633 30.694-32.703l0.094-0.005h419.021c17.214 1.087 30.764 15.314 30.764 32.707 0 0.598-0.016 1.192-0.048 1.782l0.004-0.082v53.248c0 20.133 16.321 36.454 36.454 36.454v0c0.122 0.001 0.266 0.002 0.41 0.002 20.133 0 36.454-16.321 36.454-36.454 0-0.001 0-0.002 0-0.002v0-52.838c0.101-1.776 0.159-3.853 0.159-5.943 0-58.911-45.892-107.103-103.876-110.777l-0.322-0.016h-419.021c-58.306 3.69-104.198 51.882-104.198 110.793 0 2.091 0.058 4.168 0.172 6.23l-0.013-0.287v790.528c-0.101 1.776-0.159 3.853-0.159 5.943 0 58.911 45.892 107.103 103.876 110.777l0.322 0.016h461.619c5.504-0.193 9.893-4.701 9.893-10.234 0-3.878-2.156-7.252-5.334-8.99l-0.053-0.027z"></path>
<path fill="#253b56" d="M1017.118 687.717l-99.533-53.658c-3.559-1.926-7.791-3.058-12.288-3.058s-8.729 1.132-12.427 3.127l0.139-0.069-24.576 13.107c-3.975 1.832-6.734 5.688-6.962 10.212l-0.001 0.028c0.070 4.494 2.913 8.306 6.89 9.806l0.073 0.024 54.886 29.901-54.886 29.901c-4.483 1.474-7.745 5.425-8.188 10.193l-0.004 0.047c0.070 4.494 2.913 8.306 6.89 9.806l0.073 0.024 24.576 13.517c3.436 1.809 7.509 2.871 11.83 2.871 0.161 0 0.322-0.001 0.482-0.004h-0.024c0.225 0.007 0.49 0.011 0.756 0.011 4.359 0 8.47-1.064 12.087-2.947l-0.145 0.069 99.123-54.067c4.693-1.141 8.133-5.28 8.192-10.233v-0.007c-0.793-3.894-3.403-7.045-6.887-8.572l-0.076-0.030z"></path>
<path fill="#253b56" d="M701.726 860.159l-24.986-13.517c-3.596-1.746-7.823-2.767-12.288-2.767s-8.692 1.021-12.459 2.841l0.171-0.075-52.429 28.672h-2.458c-2.108 0.963-4.572 1.525-7.168 1.525s-5.060-0.561-7.278-1.57l0.11 0.045-55.296-29.901c-3.596-1.746-7.823-2.767-12.288-2.767s-8.692 1.021-12.459 2.841l0.171-0.075-24.576 13.517c-4.164 1.51-7.085 5.432-7.085 10.035s2.921 8.525 7.011 10.012l0.074 0.024 99.123 54.067c3.436 1.809 7.509 2.871 11.83 2.871 0.161 0 0.322-0.001 0.482-0.004h-0.024c0.28 0.012 0.609 0.019 0.94 0.019 4.16 0 8.070-1.069 11.471-2.948l-0.122 0.062 99.533-54.067c4.164-1.51 7.085-5.432 7.085-10.035s-2.921-8.525-7.011-10.012l-0.074-0.024z"></path>
<path fill="#253b56" d="M311.787 728.268l-58.982-31.949 54.886-29.901c4.127-1.53 7.015-5.433 7.015-10.010 0-0.369-0.019-0.734-0.056-1.094l0.004 0.045c-0.229-4.552-2.988-8.408-6.89-10.209l-0.074-0.031-20.89-11.059c-3.559-1.926-7.791-3.058-12.288-3.058s-8.729 1.132-12.427 3.127l0.139-0.069-98.304 53.658c-3.752 2.002-6.316 5.797-6.552 10.209l-0.001 0.031c0.229 4.552 2.988 8.408 6.89 10.209l0.074 0.031 97.894 53.658c3.342 1.813 7.317 2.879 11.541 2.879 0.263 0 0.524-0.004 0.785-0.012l-0.038 0.001c0.28 0.012 0.609 0.019 0.94 0.019 4.16 0 8.070-1.069 11.471-2.948l-0.122 0.062 24.986-13.517c4.135-1.794 6.974-5.841 6.974-10.551 0-0.179-0.004-0.356-0.012-0.533l0.001 0.025c-0.664-4.059-3.307-7.38-6.888-8.981l-0.075-0.030z"></path>
<path fill="#253b56" d="M901.201 185.548c-26.651-23.026-61.636-37.053-99.897-37.053-46.030 0-87.318 20.301-115.399 52.438l-0.154 0.18c-15.489 21.433-24.774 48.238-24.774 77.212 0 13.508 2.018 26.545 5.77 38.825l-0.247-0.94c-22.804-8.127-49.11-12.912-76.506-13.107h-0.089c-26.953 0.387-52.668 5.156-76.637 13.625l1.68-0.517c3.505-11.397 5.524-24.497 5.524-38.069 0-28.855-9.124-55.578-24.645-77.443l0.279 0.415c-28.371-32.247-69.728-52.487-115.811-52.487-38.288 0-73.313 13.972-100.254 37.095l0.206-0.173c-42.747 27.748-70.625 75.248-70.625 129.26 0 30.282 8.763 58.517 23.891 82.308l-0.371-0.624c25.277 31.843 63.982 52.082 107.414 52.082 9.973 0 19.698-1.067 29.064-3.094l-0.901 0.163c-14.223 29.954-22.528 65.086-22.528 102.158 0 134.146 108.747 242.893 242.893 242.893s242.893-108.747 242.893-242.893c0-37.072-8.305-72.204-23.156-103.637l0.628 1.479c8.683 1.949 18.655 3.066 28.888 3.066 43.613 0 82.488-20.287 107.704-51.939l0.215-0.279c15.126-23.379 24.118-51.953 24.118-82.627 0-53.403-27.253-100.441-68.61-127.964l-0.564-0.353zM589.905 742.194c-0.122 0-0.266 0-0.41 0-108.81 0-197.018-88.208-197.018-197.018s88.208-197.018 197.018-197.018c108.81 0 197.017 88.208 197.018 197.017v0c0 0.122 0 0.266 0 0.41 0 108.584-88.024 196.608-196.608 196.608 0 0 0 0 0 0v0z"></path>
<path fill="#253b56" d="M589.905 381.746c-90.486 0-163.84 73.354-163.84 163.84s73.354 163.84 163.84 163.84c90.486 0 163.84-73.354 163.84-163.84v0c0-90.486-73.354-163.84-163.84-163.84v0zM715.652 545.586c0 69.448-56.299 125.747-125.747 125.747s-125.747-56.299-125.747-125.747c0-69.448 56.299-125.747 125.747-125.747v0c69.212 0.23 125.284 56.159 125.747 125.293v0.044z"></path>
<path fill="#253b56" d="M589.905 486.194c-32.575 0-58.982 26.407-58.982 58.982s26.407 58.982 58.982 58.982c32.575 0 58.982-26.407 58.982-58.982v0c-0.23-32.482-26.5-58.752-58.96-58.982h-0.022z"></path>
</svg>
