<?xml version="1.0" encoding="UTF-8" standalone="no"?>
<svg width="87px" height="79px" viewBox="0 0 87 79" version="1.1" xmlns="http://www.w3.org/2000/svg" xmlns:xlink="http://www.w3.org/1999/xlink">
    <!-- Generator: Sketch 47 (45396) - http://www.bohemiancoding.com/sketch -->
    <title>Page 1</title>
    <desc>Created with Sketch.</desc>
    <defs></defs>
    <g id="Guest-Services-(Desktop)" stroke="none" stroke-width="1" fill="none" fill-rule="evenodd">
        <g id="Maintenance-Banner" transform="translate(-320.000000, -167.000000)" fill="#FFFFFF">
            <g id="Maintenance" transform="translate(0.000000, 117.000000)">
                <path d="M355.996319,110.9856 C355.996319,107.0076 359.221919,103.7784 363.199919,103.7784 C367.177919,103.7784 370.407119,107.0076 370.407119,110.9856 C370.407119,114.9708 367.177919,118.1928 363.199919,118.1928 C359.221919,118.1928 355.996319,114.9708 355.996319,110.9856 Z M356.050319,75.3708 C356.050319,71.4144 359.250719,68.2212 363.199919,68.2212 C367.149119,68.2212 370.349519,71.4144 370.349519,75.3708 L370.349519,91.9884 C370.349519,95.9304 367.149119,99.1308 363.199919,99.1308 C359.250719,99.1308 356.050319,95.9304 356.050319,91.9884 L356.050319,75.3708 Z M370.061519,54.1956 C368.668319,51.7116 366.043919,50.178 363.199919,50.178 C360.355919,50.178 357.727919,51.7116 356.338319,54.1956 L321.000719,117.3 C319.639919,119.7408 319.668719,122.7144 321.076319,125.1264 C322.491119,127.5312 325.072319,129 327.862319,129 L398.537519,129 C401.331119,129 403.908719,127.5312 405.319919,125.1264 C406.734719,122.7144 406.763519,119.7408 405.395519,117.3 L370.061519,54.1956 Z" id="Page-1"></path>
            </g>
        </g>
    </g>
</svg>