<?xml version="1.0" encoding="UTF-8" standalone="no"?>
<svg width="60px" height="62px" viewBox="0 0 60 62" version="1.1" xmlns="http://www.w3.org/2000/svg" xmlns:xlink="http://www.w3.org/1999/xlink">
    <!-- Generator: Sketch 47.1 (45422) - http://www.bohemiancoding.com/sketch -->
    <title>Icon</title>
    <desc>Created with Sketch.</desc>
    <defs></defs>
    <g id="Page-1" stroke="none" stroke-width="1" fill="none" fill-rule="evenodd">
        <path d="M58.6495276,53.703294 L43.7805034,38.8203984 C46.7979413,34.7667393 48.6108622,29.7627155 48.6108622,24.3281058 C48.6108622,10.9153537 37.705682,0 24.3023583,0 C10.9021074,0 0,10.9153537 0,24.3281058 C0,37.7439335 10.9021074,48.6562116 24.3023583,48.6562116 C28.9483522,48.6562116 33.2778532,47.3244708 36.9712954,45.0515921 L52.1322306,60.226671 C53.0325455,61.1278259 54.2124805,61.5799411 55.3924154,61.5799411 C56.5692776,61.5799411 57.7492126,61.1278259 58.6495276,60.226671 C60.4501575,58.4243613 60.4501575,55.5056037 58.6495276,53.703294 L58.6495276,53.703294 Z M24.3023583,39.42937 C15.9844314,39.42937 9.21824188,32.6537926 9.21824188,24.3281058 C9.21824188,16.002419 15.9844314,9.22684164 24.3023583,9.22684164 C32.623358,9.22684164 39.3926203,16.002419 39.3926203,24.3281058 C39.3926203,32.6537926 32.623358,39.42937 24.3023583,39.42937 L24.3023583,39.42937 Z" id="Icon" fill="#0088F1"></path>
    </g>
</svg>