<?xml version="1.0" encoding="UTF-8" standalone="no"?>
<svg width="34px" height="34px" viewBox="0 0 34 34" version="1.1" xmlns="http://www.w3.org/2000/svg" xmlns:xlink="http://www.w3.org/1999/xlink">
    <!-- Generator: Sketch 47.1 (45422) - http://www.bohemiancoding.com/sketch -->
    <title>Fill 1</title>
    <desc>Created with Sketch.</desc>
    <defs></defs>
    <g id="Symbols" stroke="none" stroke-width="1" fill="none" fill-rule="evenodd">
        <g id="eu_gx_section-icon-search" transform="translate(-18.000000, -18.000000)" stroke="#FFFFFF" fill="#FFFFFF">
            <g id="Search-Icon" transform="translate(19.000000, 19.000000)">
                <path d="M13.3004387,24.2973935 C7.23592258,24.2973935 2.30276129,19.3642323 2.30276129,13.3007484 C2.30276129,7.23623226 7.23592258,2.30203871 13.3004387,2.30203871 C19.3639226,2.30203871 24.2970839,7.23623226 24.2970839,13.3007484 C24.2970839,19.3642323 19.3639226,24.2973935 13.3004387,24.2973935 L13.3004387,24.2973935 Z M21.8950194,23.5252645 L30.0446968,31.6501677 C30.2635355,31.879329 30.5546323,32.0001032 30.8488258,32.0001032 C31.4723097,32.0001032 31.9997935,31.4726194 31.9997935,30.8491355 C31.9997935,30.5549419 31.8748903,30.247329 31.6736,30.0450065 L23.5239226,21.8973935 L24.2599226,20.8352 C25.7690839,18.6540387 26.6010839,15.9784258 26.6010839,13.3007484 C26.6010839,5.96655484 20.6336,0.000103225806 13.3004387,0.000103225806 C5.96727742,0.000103225806 -0.000206451613,5.96655484 -0.000206451613,13.3007484 C-0.000206451613,20.6339097 5.96727742,26.6003613 13.3004387,26.6003613 C15.9791484,26.6003613 18.6547613,25.7693935 20.8348903,24.2602323 L21.8950194,23.5252645 Z" id="Fill-1"></path>
            </g>
        </g>
    </g>
</svg>