<!-- Generated by IcoMoon.io -->
<svg version="1.1" xmlns="http://www.w3.org/2000/svg" width="1024" height="1024" viewBox="0 0 1024 1024">
<title></title>
<g id="icomoon-ignore">
</g>
<path fill="#253b56" d="M949.056 294.912c-9.003-9.058-21.452-14.683-35.214-14.746h-803.647c-0.059 0-0.128 0-0.198 0-14.056 0-26.756 5.803-35.835 15.144l-0.011 0.012c-9.349 8.963-15.158 21.554-15.158 35.501 0 0.191 0.001 0.382 0.003 0.572v-0.029 236.749c0.232 28.1 23.065 50.79 51.198 50.79 0.001 0 0.001 0 0.002 0h803.635c0.001 0 0.001 0 0.002 0 28.133 0 50.966-22.69 51.198-50.768v-235.132c-0.126-14.89-6.207-28.336-15.974-38.092v0zM901.133 553.779h-774.144v-207.667h774.144z"></path>
<path fill="#253b56" d="M949.056 699.597c-9.003-9.058-21.452-14.683-35.214-14.746h-803.647c-0.028 0-0.060 0-0.093 0-14.014 0-26.712 5.63-35.957 14.751l0.006-0.006c-9.355 9.155-15.155 21.91-15.155 36.019 0 0.009 0 0.018 0 0.027v-0.001 236.749c-0.001 0.122-0.002 0.266-0.002 0.41 0 28.277 22.923 51.2 51.2 51.2 0.001 0 0.001 0 0.002 0h803.635c0.001 0 0.001 0 0.002 0 28.133 0 50.966-22.69 51.198-50.768v-235.952c-0.147-14.757-6.229-28.066-15.969-37.677l-0.006-0.006zM901.133 958.054h-776.192v-207.667h776.192z"></path>
<path fill="#253b56" d="M801.191 0h122.88c22.622 0 40.96 18.338 40.96 40.96v122.88c0 22.622-18.338 40.96-40.96 40.96h-122.88c-22.622 0-40.96-18.338-40.96-40.96v-122.88c0-22.622 18.338-40.96 40.96-40.96z"></path>
<path fill="#253b56" d="M111.424 132.71h462.029c29.165-0.89 52.469-24.745 52.469-54.044 0-0.729-0.014-1.454-0.043-2.175l0.003 0.104c0.016-0.499 0.026-1.087 0.026-1.676 0-29.376-23.251-53.321-52.353-54.436l-0.101-0.003h-462.029c-29.243 1.343-52.444 25.378-52.444 54.832 0 0.451 0.005 0.901 0.016 1.35l-0.001-0.067c-0.016 0.499-0.026 1.087-0.026 1.676 0 29.376 23.251 53.321 52.353 54.436l0.101 0.003z"></path>
</svg>
